<svg width="20" height="32" viewBox="0 0 20 32" fill="none" xmlns="http://www.w3.org/2000/svg">
<path id="Vector" d="M17.1601 11.897L16.906 11.869L10.778 11.869C9.89619 11.869 9.32823 10.986 9.74672 10.2571L12.9303 4.83288C13.857 3.193 13.1545 1.13263 11.3609 0.333706C9.61221 -0.465212 7.51973 0.221578 6.66779 1.84745L0.898528 13.1304C-0.267282 15.0086 1.27218 17.5035 3.6038 17.4474L10.7631 17.4194C11.6001 17.4194 12.168 18.2043 11.8542 18.9331L7.38521 29.319C6.65284 31.1131 9.34318 32.2905 10.3595 30.6225L19.1928 15.401C20.0746 13.9434 18.9536 11.9951 17.1601 11.897Z" fill="#48E988"/>
</svg>
